<?xml version="1.0" encoding="utf-8"?>
<!-- Generator: Adobe Illustrator 16.0.0, SVG Export Plug-In . SVG Version: 6.00 Build 0)  -->
<!DOCTYPE svg PUBLIC "-//W3C//DTD SVG 1.1//EN" "http://www.w3.org/Graphics/SVG/1.1/DTD/svg11.dtd">
<svg version="1.1" id="Layer_1" xmlns="http://www.w3.org/2000/svg" xmlns:xlink="http://www.w3.org/1999/xlink" x="0px" y="0px"
	 width="150px" height="120px" viewBox="25 -10 150 120" enable-background="new 25 -10 150 120" xml:space="preserve">
<path fill="#C1CD23" d="M171.721,5.521c-5.275,2.34-10.955,3.923-16.903,4.635c6.075-3.645,10.746-9.406,12.942-16.281
	c-5.688,3.375-11.988,5.823-18.685,7.138c-5.362-5.725-13.013-9.298-21.482-9.298c-16.254,0-29.43,13.176-29.43,29.43
	c0,2.305,0.261,4.555,0.765,6.705C74.465,26.634,52.774,14.917,38.259-2.885c-2.529,4.348-3.979,9.396-3.979,14.787
	c0,10.205,5.193,19.215,13.095,24.498c-4.832-0.152-9.368-1.476-13.337-3.682c0,0.126,0,0.244,0,0.369
	c0,14.256,10.143,26.155,23.605,28.854c-2.465,0.676-5.065,1.035-7.748,1.035c-1.898,0-3.744-0.189-5.535-0.531
	c3.744,11.691,14.616,20.205,27.495,20.439c-10.071,7.893-22.762,12.602-36.549,12.602c-2.376,0-4.717-0.135-7.02-0.416
	c13.022,8.352,28.493,13.221,45.116,13.221c54.136,0,83.737-44.846,83.737-83.736c0-1.277-0.028-2.546-0.082-3.806
	C162.781,16.609,167.776,11.424,171.721,5.521z"/>
</svg>
