<?xml version="1.0" encoding="utf-8"?>
<!-- Generator: Adobe Illustrator 16.0.0, SVG Export Plug-In . SVG Version: 6.00 Build 0)  -->
<!DOCTYPE svg PUBLIC "-//W3C//DTD SVG 1.1//EN" "http://www.w3.org/Graphics/SVG/1.1/DTD/svg11.dtd">
<svg version="1.1" id="Layer_1" xmlns="http://www.w3.org/2000/svg" xmlns:xlink="http://www.w3.org/1999/xlink" x="0px" y="0px"
	 width="150px" height="110px" viewBox="26 -4.5 150 110" enable-background="new 26 -4.5 150 110" xml:space="preserve">
<g>
	<path fill="#C1CD23" d="M37.4-0.5c42.399,0,84.799,0,127.2,0c-19.612,19.672-39.214,39.356-58.854,59
		c-3.074,3.074-6.419,3.076-9.494,0C76.612,38.856,57.013,19.172,37.4-0.5z"/>
	<path fill="#FFFFFF" d="M37.4-0.5c19.612,19.672,39.212,39.356,58.852,59c3.075,3.076,6.42,3.074,9.494,0
		c19.641-19.644,39.242-39.328,58.854-59c2.8,0,5.601,0,8.399,0c0,2.8,0,5.601,0,8.4c-13.911,14.504-27.822,29.01-40.867,42.611
		C145.171,64.099,159.086,78.6,173,93.1c0,2.8,0,5.601,0,8.4c-2.799,0-5.6,0-8.399,0c-14.37-14.04-28.738-28.078-43.331-42.339
		c-5.961,5.209-10.628,12.936-20.273,13.021c-9.854,0.085-14.328-8.351-20.285-12.889C65.98,73.646,51.691,87.573,37.4,101.5
		c-2.8,0-5.601,0-8.4,0c0-2.8,0-5.601,0-8.4c13.917-14.497,27.833-28.995,40.88-42.586C56.823,36.904,42.912,22.402,29,7.9
		c0-2.8,0-5.601,0-8.4C31.8-0.5,34.601-0.5,37.4-0.5z"/>
	<path fill="#C1CD23" d="M37.4,101.5c14.291-13.927,28.58-27.854,43.311-42.209c5.957,4.54,10.431,12.976,20.285,12.889
		c9.645-0.083,14.312-7.812,20.273-13.02c14.593,14.262,28.961,28.3,43.331,42.34C122.199,101.5,79.8,101.5,37.4,101.5z"/>
	<path fill="#C1CD23" d="M29,7.9c13.912,14.502,27.823,29.004,40.88,42.613C56.833,64.104,42.917,78.603,29,93.1
		C29,64.699,29,36.301,29,7.9z"/>
	<path fill="#C1CD23" d="M173,93.1c-13.914-14.5-27.829-29.001-40.867-42.588C145.178,36.91,159.089,22.404,173,7.9
		C173,36.301,173,64.699,173,93.1z"/>
</g>
</svg>
