<?xml version="1.0" encoding="utf-8"?>
<!-- Generator: Adobe Illustrator 16.0.0, SVG Export Plug-In . SVG Version: 6.00 Build 0)  -->
<!DOCTYPE svg PUBLIC "-//W3C//DTD SVG 1.1//EN" "http://www.w3.org/Graphics/SVG/1.1/DTD/svg11.dtd">
<svg version="1.1" id="Layer_1" xmlns="http://www.w3.org/2000/svg" xmlns:xlink="http://www.w3.org/1999/xlink" x="0px" y="0px"
	 width="150px" height="150px" viewBox="24.998 -25.004 150 150" enable-background="new 24.998 -25.004 150 150"
	 xml:space="preserve">
<path fill="#C1CD23" d="M99.993-20.957c-40.172,0-72.75,32.568-72.75,72.76c0,32.137,20.841,59.409,49.753,69.027
	c3.638,0.665,4.969-1.574,4.969-3.507c0-1.723-0.066-6.299-0.094-12.375c-20.24,4.397-24.505-9.75-24.505-9.75
	c-3.311-8.399-8.082-10.641-8.082-10.641c-6.608-4.509,0.496-4.424,0.496-4.424c7.304,0.516,11.148,7.5,11.148,7.5
	c6.487,11.118,17.024,7.904,21.168,6.047c0.665-4.708,2.54-7.904,4.621-9.721c-16.153-1.847-33.13-8.083-33.13-35.964
	c0-7.94,2.831-14.438,7.49-19.52c-0.75-1.846-3.252-9.244,0.713-19.255c0,0,6.112-1.96,20.005,7.462
	c5.804-1.623,12.021-2.428,18.208-2.457c6.178,0.029,12.403,0.834,18.215,2.447c13.895-9.413,19.988-7.463,19.988-7.463
	c3.965,10.013,1.471,17.409,0.721,19.256c4.658,5.082,7.48,11.578,7.48,19.52c0,27.946-17.008,34.096-33.215,35.897
	c2.613,2.25,4.939,6.685,4.939,13.471c0,9.721-0.094,17.569-0.094,19.96c0,1.949,1.312,4.21,5.008,3.496
	c28.885-9.637,49.707-36.892,49.707-69.019C172.752,11.621,140.174-20.957,99.993-20.957z"/>
</svg>
